<svg class="svg-icon" style="width: 1em; height: 1em;vertical-align: middle;fill: currentColor;overflow: hidden;" viewBox="0 0 1024 1024" version="1.1" xmlns="http://www.w3.org/2000/svg"><path d="M469.333333 128v298.666667c0 23.466667-19.2 42.666667-42.666666 42.666666H128c-23.466667 0-42.666667-19.2-42.666667-42.666666V128c0-23.466667 19.2-42.666667 42.666667-42.666667h298.666667c23.466667 0 42.666667 19.2 42.666666 42.666667zM170.666667 384h213.333333V170.666667H170.666667v213.333333zM746.666667 533.333333c117.333333 0 213.333333 96 213.333333 213.333334s-96 213.333333-213.333333 213.333333-213.333333-96-213.333334-213.333333 96-213.333333 213.333334-213.333334z m0 341.333334c70.4 0 128-57.6 128-128s-57.6-128-128-128-128 57.6-128 128 57.6 128 128 128zM964.266667 405.333333c8.533333 12.8 8.533333 29.866667 0 42.666667s-21.333333 21.333333-36.266667 21.333333h-362.666667c-14.933333 0-29.866667-8.533333-36.266666-21.333333s-8.533333-29.866667 0-42.666667l181.333333-313.6c8.533333-12.8 21.333333-21.333333 36.266667-21.333333s29.866667 8.533333 36.266666 21.333333L964.266667 405.333333zM640 384h213.333333l-106.666666-185.6-106.666667 185.6zM456.533333 567.466667c-17.066667-17.066667-42.666667-17.066667-59.733333 0L277.333333 686.933333l-119.466666-119.466666c-17.066667-17.066667-42.666667-17.066667-59.733334 0s-17.066667 42.666667 0 59.733333l119.466667 119.466667-119.466667 119.466666c-17.066667 17.066667-17.066667 42.666667 0 59.733334 8.533333 8.533333 19.2 12.8 29.866667 12.8s21.333333-4.266667 29.866667-12.8l119.466666-119.466667 119.466667 119.466667c8.533333 8.533333 19.2 12.8 29.866667 12.8 10.666667 0 21.333333-4.266667 29.866666-12.8 17.066667-17.066667 17.066667-42.666667 0-59.733334L337.066667 746.666667l119.466666-119.466667c17.066667-17.066667 17.066667-42.666667 0-59.733333" fill="#2F3CF4" /></svg>